<?xml version="1.0" encoding="UTF-8"?>
<svg version="1.1" xmlns="http://www.w3.org/2000/svg" width="1115" height="800">
<path d="M0 0 C0 226.71 0 453.42 0 687 C-113 687 -113 687 -137 686 C-137.33 518.69 -137.66 351.38 -138 179 C-161.06965545 183.88393213 -161.06965545 183.88393213 -183.9375 189.5 C-184.74953888 189.71332977 -185.56157776 189.92665955 -186.39822388 190.14645386 C-214.70252352 197.6002493 -242.80152461 205.85031194 -270.92481995 213.95465088 C-278.86494223 216.24208709 -286.80850932 218.5161924 -294.75976562 220.76464844 C-297.13182851 221.43688054 -299.50382986 222.10932943 -301.87582588 222.78179741 C-303.36513951 223.20309606 -304.85483477 223.62304857 -306.34495354 224.04149055 C-318.17065097 227.36240363 -329.70576051 231.14414153 -341 236 C-341.75361816 236.32178223 -342.50723633 236.64356445 -343.28369141 236.97509766 C-379.843334 252.80999777 -407.83115222 282.22990728 -422.66796875 319.2578125 C-436.87449773 359.16941003 -436.30471761 401.40360053 -435.65502548 443.20427704 C-435.5044251 452.94384234 -435.38498866 462.68382634 -435.26660156 472.42382812 C-435.2480279 473.93749663 -435.2480279 473.93749663 -435.22907901 475.48174429 C-434.9520905 498.3574013 -434.8793635 521.23221135 -434.8671875 544.109375 C-434.8666742 545.07266535 -434.86616091 546.0359557 -434.86563206 547.02843666 C-434.86030146 558.66492343 -434.86421667 570.3013971 -434.87143254 581.93788195 C-434.87585299 589.93131184 -434.87260607 597.92472646 -434.8678025 605.91815543 C-434.86326202 613.7994594 -434.86262111 621.6807567 -434.86524117 629.56206155 C-434.86678038 634.19341416 -434.86706087 638.82475621 -434.86370468 643.45610809 C-434.86080707 647.74177239 -434.86283604 652.02740725 -434.86859894 656.31306839 C-434.86991006 657.86905748 -434.8695608 659.42504909 -434.86733627 660.98103714 C-434.86456291 663.11790417 -434.86807812 665.25467921 -434.87301636 667.39154053 C-434.8735819 669.17245401 -434.8735819 669.17245401 -434.87415886 670.98934555 C-435.04194366 676.33677701 -435.55570144 681.66841734 -436 687 C-481.21 687 -526.42 687 -573 687 C-573.59880402 654.06577897 -574.19282604 621.14165255 -574.50323486 588.2048645 C-574.51778591 586.66673033 -574.51778591 586.66673033 -574.53263092 585.09752274 C-574.54248772 584.05471523 -574.55234451 583.01190773 -574.5625 581.9375 C-574.58354502 579.7467345 -574.60460233 577.55596912 -574.62567139 575.36520386 C-575.0541854 530.49531297 -575.14935639 485.65191534 -574.59383392 440.78272629 C-574.57324168 439.11825161 -574.55283508 437.45377463 -574.53263092 435.7892952 C-574.31656346 418.01879763 -574.02700325 400.25298497 -573.515625 382.48828125 C-573.49613359 381.79326256 -573.47664219 381.09824387 -573.45656013 380.382164 C-570.98528203 293.57260919 -537.94430404 219.39038764 -475.45263672 159.35058594 C-472.35084013 156.46669707 -469.06530358 153.82243177 -465.74609375 151.1953125 C-463.91365681 149.73040559 -462.1133721 148.22436381 -460.34765625 146.6796875 C-408.59017343 101.52799842 -335.62084603 86.3765163 -270.793396 70.11843109 C-245.33384699 63.73200576 -219.98498473 57.00043253 -194.6875 50 C-193.85011292 49.76833633 -193.01272583 49.53667267 -192.14996338 49.29798889 C-184.61119619 47.21195373 -177.07331924 45.12271551 -169.53643799 43.02987671 C-142.71904888 35.58433025 -115.86408809 28.27505441 -89 21 C-87.81946045 20.68011108 -86.6389209 20.36022217 -85.42260742 20.03063965 C-60.06367258 13.1634408 -34.72674991 6.36649137 -9 1 C-8.1430957 0.81083008 -7.28619141 0.62166016 -6.40332031 0.42675781 C-4 0 -4 0 0 0 Z " fill="#00ADAF" transform="translate(1073,75)"/>
<path d="M0 0 C40.06022895 -0.98287211 76.75767736 8.3898493 112.99621582 24.84521484 C127.40258692 31.38044549 141.87849139 37.5542491 156.71240234 43.06640625 C155.57459652 52.89138061 152.15533557 61.90460536 148.86270142 71.16143799 C143.51017465 86.26876623 138.34551706 101.21286139 135.71240234 117.06640625 C135.56802734 117.8670752 135.42365234 118.66774414 135.27490234 119.49267578 C132.30729081 136.34115778 131.9314318 153.47085886 131.2490387 170.52915955 C130.28987806 194.47533227 130.28987806 194.47533227 128.71240234 200.06640625 C123.24994905 197.75536832 119.31034467 193.86274189 115.58740234 189.37890625 C90.1292083 159.75179397 46.69636454 143.06568822 8.71240234 140.06640625 C-11.32021468 138.78162684 -31.35578692 141.39546768 -50.28759766 148.06640625 C-50.91682129 148.2866748 -51.54604492 148.50694336 -52.19433594 148.73388672 C-89.78843188 162.19036452 -119.33469592 189.57059066 -136.46826172 225.54541016 C-149.20798265 253.13089038 -154.39693268 280.84575278 -154.49291992 311.10205078 C-154.50251166 313.02468571 -154.51252248 314.94731859 -154.5229187 316.86994934 C-154.54983354 322.06545926 -154.57091533 327.26097815 -154.59092069 332.45651865 C-154.61286352 337.89509092 -154.64021143 343.33363599 -154.66697693 348.77218628 C-154.71679203 359.06017684 -154.76177213 369.34818258 -154.80499929 379.63620269 C-154.86372478 393.5459572 -154.92995125 407.45567589 -154.99574947 421.36539841 C-155.09914913 443.26571018 -155.19255457 465.16605293 -155.28759766 487.06640625 C-224.09259766 486.57140625 -224.09259766 486.57140625 -294.28759766 486.06640625 C-295.53662949 443.98964647 -295.53662949 443.98964647 -295.83447266 430.68359375 C-295.85516563 429.75934475 -295.87585861 428.83509575 -295.89717865 427.8828392 C-296.38482242 405.58528804 -296.51857049 383.28854301 -296.53436279 360.98617172 C-296.53754706 358.05055071 -296.54462325 355.11496296 -296.55273438 352.17935181 C-296.78015466 259.3937594 -283.65408087 172.46206921 -219.65722656 100.60791016 C-218.29681048 99.0767752 -216.95304263 97.53232598 -215.61181641 95.984375 C-211.04453557 90.77607229 -211.04453557 90.77607229 -209.28759766 89.06640625 C-208.62759766 89.06640625 -207.96759766 89.06640625 -207.28759766 89.06640625 C-207.28759766 88.40640625 -207.28759766 87.74640625 -207.28759766 87.06640625 C-206.62759766 87.06640625 -205.96759766 87.06640625 -205.28759766 87.06640625 C-204.79259766 85.58140625 -204.79259766 85.58140625 -204.28759766 84.06640625 C-202.79150391 82.55859375 -202.79150391 82.55859375 -200.85009766 80.94140625 C-197.72250663 78.29540889 -194.67406234 75.59392243 -191.66259766 72.81640625 C-181.51073834 63.68748238 -170.66443224 55.66577534 -159.18652344 48.29150391 C-157.32326443 47.08941677 -155.47519387 45.86637156 -153.62744141 44.640625 C-108.25066119 14.9554358 -53.79012042 1.56146347 0 0 Z " fill="#136FD5" transform="translate(340.28759765625,275.93359375)"/>
<path d="M0 0 C1.13018814 3.39056441 0.93959671 3.80322434 -0.37109375 6.9375 C-0.69424561 7.73551025 -1.01739746 8.53352051 -1.3503418 9.35571289 C-1.709104 10.22832764 -2.06786621 11.10094238 -2.4375 12 C-23.77500527 66.24524794 -23.48831924 122.23763359 -23.27262372 179.55777776 C-23.24772399 186.40501202 -23.24157434 193.25219805 -23.2375679 200.09947109 C-23.23348108 206.85122182 -23.22099919 213.60295479 -23.20722103 220.35469174 C-23.20326459 222.42311577 -23.2002707 224.49153933 -23.19742584 226.55996513 C-23.15062493 252.38701726 -22.5381255 278.16997619 -22 304 C22.55 304.33 67.1 304.66 113 305 C112.98839844 292.07070313 112.97679687 279.14140625 112.96484375 265.8203125 C112.95973161 257.60807272 112.95487593 249.39583409 112.95117188 241.18359375 C112.94525091 228.16129154 112.93831104 215.13899583 112.92456055 202.11669922 C112.91454854 192.63032967 112.90813115 183.14396543 112.90591151 173.65759075 C112.9046154 168.64132015 112.9016 163.62506469 112.89426994 158.60879898 C112.88740657 153.87286076 112.88540369 149.1369437 112.88689232 144.40100098 C112.88662057 142.67667398 112.88467735 140.95234617 112.88079453 139.22802353 C112.86222199 130.54310162 112.98087353 121.89036014 113.45289612 113.21676636 C113.51275866 112.11533741 113.51275866 112.11533741 113.57383054 110.99165738 C113.93020887 105.06894062 114.72428757 99.31505061 115.875 93.5 C116.03613281 92.61570312 116.19726562 91.73140625 116.36328125 90.8203125 C117.51237884 84.74523842 119.1172262 78.88702739 121 73 C122.18008224 76.4888046 121.81146081 78.93853183 121.0390625 82.5078125 C120.81476563 83.57773437 120.59046875 84.64765625 120.359375 85.75 C120.11703125 86.86375 119.8746875 87.9775 119.625 89.125 C119.15406338 91.31407901 118.68785342 93.50418063 118.2265625 95.6953125 C118.01596191 96.66484863 117.80536133 97.63438477 117.58837891 98.63330078 C115.70848248 109.39005255 115.82920427 120.15247697 115.79467773 131.03564453 C115.785086 132.95827946 115.77507518 134.88091234 115.76467896 136.80354309 C115.73776411 141.99905301 115.71668232 147.1945719 115.69667697 152.3901124 C115.67473413 157.82868467 115.64738622 163.26722974 115.62062073 168.70578003 C115.57080562 178.99377059 115.52582553 189.28177633 115.48259836 199.56979644 C115.42387288 213.47955095 115.35764641 227.38926964 115.29184818 241.29899216 C115.18844853 263.19930393 115.09504308 285.09964668 115 307 C46.195 306.505 46.195 306.505 -24 306 C-25.24903183 263.92324022 -25.24903183 263.92324022 -25.546875 250.6171875 C-25.56756798 249.6929385 -25.58826096 248.7686895 -25.60958099 247.81643295 C-26.09722477 225.51888179 -26.23097283 203.22213676 -26.24676514 180.91976547 C-26.2499494 177.98414446 -26.2570256 175.04855671 -26.26513672 172.11294556 C-26.40888098 113.46647688 -24.85915231 54.28022354 0 0 Z " fill="#DAE6F3" transform="translate(70,456)"/>
<path d="M0 0 C0.66 0.33 1.32 0.66 2 1 C0.02 3.31 -1.96 5.62 -4 8 C-4.66 7.67 -5.32 7.34 -6 7 C-4.71937515 5.2925002 -3.38232443 3.62626404 -2 2 C-1.34 2 -0.68 2 0 2 C0 1.34 0 0.68 0 0 Z " fill="#9FC0E4" transform="translate(133,363)"/>
</svg>
