<?xml version="1.0" encoding="UTF-8"?>
<svg version="1.1" xmlns="http://www.w3.org/2000/svg" width="1748" height="500">
<path d="M0 0 C12.21 0 24.42 0 37 0 C42.59751019 10.52666096 48.0979109 21.0901128 53.4375 31.75 C53.92565186 32.72179199 54.41380371 33.69358398 54.91674805 34.69482422 C57.82771865 40.52801013 60.66571981 46.39034318 63.45976257 52.28018188 C70.99958902 68.15722322 78.85928452 83.87180013 86.72851562 99.58740234 C88.7543106 103.63318922 90.7763918 107.68082002 92.79750252 111.72894859 C94.36590529 114.86935042 95.93619455 118.00880585 97.50707626 121.14796829 C98.2548582 122.64286574 99.00204742 124.13805983 99.74863052 125.63355637 C100.77987596 127.69856962 101.8136518 129.76229564 102.84814453 131.82568359 C103.43451691 132.99763275 104.02088928 134.16958191 104.62503052 135.37704468 C105.76041728 137.85974325 105.76041728 137.85974325 107 139 C113.20126481 126.6208322 119.40025367 114.24052752 125.59648609 101.85883999 C128.47494783 96.1070939 131.35413816 90.35571517 134.23510742 84.60522461 C137.02502985 79.03639431 139.81288983 73.4665357 142.59943199 67.89601326 C143.65302605 65.79064646 144.7073134 63.68562643 145.76236916 61.58099174 C151.70645583 49.72239705 157.56967892 37.8330323 163.23885059 25.8401022 C174.12452376 2.87547624 174.12452376 2.87547624 177 0 C188.88 0 200.76 0 213 0 C213 70.29 213 140.58 213 213 C200.46 213 187.92 213 175 213 C174.67 173.07 174.34 133.14 174 92 C161.38712537 117.14605774 161.38712537 117.14605774 149.13671875 142.44140625 C144.82698134 151.49435279 140.40289483 160.49212347 136 169.5 C128.93011582 183.96732425 121.90212414 198.45171541 115 213 C109.72 213 104.44 213 99 213 C97.29263672 209.58333984 97.29263672 209.58333984 95.55078125 206.09765625 C92.9555436 200.90550302 90.35637185 195.71535423 87.75125122 190.52815247 C73.4268993 162.00515039 73.4268993 162.00515039 67.75 150.0625 C58.6488993 130.96997354 49.28962759 112.00151099 40 93 C39.67 132.6 39.34 172.2 39 213 C26.13 213 13.26 213 0 213 C0 142.71 0 72.42 0 0 Z " fill="#FEFEFE" transform="translate(281,124)"/>
<path d="M0 0 C1.20950713 0.99466047 2.39674691 2.01690128 3.5625 3.0625 C4.2740625 3.68253906 4.985625 4.30257812 5.71875 4.94140625 C20.86680188 19.02598188 28.55511426 38.56480145 29.5625 59.0625 C30.16602346 77.25192962 30.16602346 77.25192962 28.5625 82.0625 C-8.0675 82.0625 -44.6975 82.0625 -82.4375 82.0625 C-79.35236958 94.40302168 -76.18694895 103.97763592 -65.4375 111.0625 C-55.98588439 116.33600076 -44.61178903 116.51802803 -34.18359375 114.40234375 C-26.31637328 111.87476666 -20.11158394 107.30966016 -15.9375 100.125 C-15.4425 99.114375 -14.9475 98.10375 -14.4375 97.0625 C-6.51887211 97.5656904 0.80939299 99.63533907 8.3762207 101.87329102 C10.5167473 102.50494198 12.66128279 103.1213109 14.80664062 103.73632812 C16.17213637 104.13452148 17.53738061 104.5335785 18.90234375 104.93359375 C20.13331787 105.29380615 21.36429199 105.65401855 22.63256836 106.02514648 C25.5625 107.0625 25.5625 107.0625 27.5625 109.0625 C18.32891118 128.31752652 4.90124702 142.3233944 -15.4375 150.0625 C-22.98021099 152.60388858 -30.4589331 154.75661245 -38.4375 155.0625 C-39.53320312 155.1140625 -40.62890625 155.165625 -41.7578125 155.21875 C-65.00591635 155.80116596 -86.92924436 148.62701362 -104.02734375 132.55859375 C-118.09585777 117.98844713 -126.66515125 98.37863017 -127.4375 78.0625 C-127.47746094 77.25167969 -127.51742187 76.44085938 -127.55859375 75.60546875 C-128.12571808 53.3541787 -122.47906144 28.36318591 -107.0625 11.5625 C-79.19390899 -17.31010613 -33.19762024 -23.5808493 0 0 Z M-72.4375 31.0625 C-76.68077717 36.38916708 -81.4375 43.04738949 -81.4375 50.0625 C-58.6675 50.0625 -35.8975 50.0625 -12.4375 50.0625 C-13.67254856 40.18211151 -15.50203185 34.91597673 -23.21484375 28.6015625 C-37.30925372 18.84198864 -59.76235948 18.51442856 -72.4375 31.0625 Z " fill="#FEFEFE" transform="translate(1127.4375,186.9375)"/>
<path d="M0 0 C1.50521858 1.30385154 2.98688076 2.63566294 4.4375 4 C5.38496094 4.88558594 5.38496094 4.88558594 6.3515625 5.7890625 C19.96220294 19.87937309 22.62590748 39.588127 22.55102539 58.31494141 C22.55117142 59.29175873 22.55131744 60.26857605 22.5514679 61.2749939 C22.55077755 64.46720693 22.54302673 67.65935981 22.53515625 70.8515625 C22.53328895 73.07929452 22.53186652 75.30702695 22.53086853 77.53475952 C22.52706796 83.3708003 22.51725891 89.20681582 22.50616455 95.04284668 C22.49589731 101.00902973 22.49135957 106.9752169 22.48632812 112.94140625 C22.47563424 124.627617 22.45805759 136.31380244 22.4375 148 C10.5575 148 -1.3225 148 -13.5625 148 C-13.8925 142.39 -14.2225 136.78 -14.5625 131 C-15.820625 132.340625 -17.07875 133.68125 -18.375 135.0625 C-31.4553915 148.08148121 -47.37440243 153.11243935 -65.5625 153.25 C-81.09122053 153.13255281 -96.13818359 149.87896718 -107.72265625 138.96484375 C-118.44216196 127.60417135 -121.64732817 114.32808222 -121.5625 99 C-120.71710199 86.70818137 -117.26516355 75.9448527 -108.5625 67 C-88.85933318 50.02402112 -60.8137335 46.80420211 -35.9375 43.1875 C-35.09179443 43.06366943 -34.24608887 42.93983887 -33.37475586 42.81225586 C-28.72282187 42.17283255 -24.25759547 41.88041982 -19.5625 42 C-21.53395663 34.97668577 -24.40718383 30.99778267 -30.5625 27 C-40.95960406 21.66912119 -55.80713283 22.78020665 -66.7109375 25.94921875 C-72.93425444 28.24246842 -79.12220808 30.88263393 -84.16015625 35.25390625 C-86.5625 37 -86.5625 37 -88.55078125 37.0859375 C-91.52546699 35.48018481 -93.5537167 33.13592594 -95.75 30.625 C-96.22614746 30.09132812 -96.70229492 29.55765625 -97.19287109 29.0078125 C-98.66220777 27.34924677 -100.11477769 25.67744923 -101.5625 24 C-102.0147998 23.47889648 -102.46709961 22.95779297 -102.93310547 22.42089844 C-110.92847965 13.14995135 -110.92847965 13.14995135 -111.5625 9 C-79.8465488 -17.95855852 -34.83919494 -26.77505451 0 0 Z M-30.84375 75.57421875 C-31.65307983 75.73992874 -32.46240967 75.90563873 -33.29626465 76.07637024 C-35.01145607 76.4297446 -36.72616871 76.78544973 -38.44042969 77.14331055 C-41.02318428 77.67934034 -43.60899073 78.19829623 -46.1953125 78.71679688 C-63.87708311 82.18136541 -63.87708311 82.18136541 -78.5625 92 C-81.10660977 96.25785038 -81.22548163 100.15450467 -80.5625 105 C-78.48760523 110.74241146 -74.65444212 114.32151714 -69.375 117.1875 C-59.28177183 120.10332147 -49.18276594 119.06835699 -39.62109375 114.63671875 C-34.98795713 111.96455202 -31.10202553 109.04517203 -27.5625 105 C-26.69625 104.0925 -25.83 103.185 -24.9375 102.25 C-18.50832213 94.4055943 -18.39105419 83.63906462 -18.5625 74 C-22.82522902 74 -26.6947057 74.71906087 -30.84375 75.57421875 Z " fill="#FEFEFE" transform="translate(647.5625,189)"/>
<path d="M0 0 C17.2773232 13.84906694 27.57315553 33.32049761 30.26855469 55.17773438 C32.99294177 81.75537958 27.2186335 105.54166845 10.6875 126.6875 C-2.69693888 142.49730699 -21.67164839 150.6382914 -42 153 C-64.65449051 154.4157325 -87.0139247 149.22989613 -104.65136719 134.24584961 C-120.92393893 119.72415693 -130.20793097 99.141073 -131.875 77.50390625 C-133.04233225 54.12078218 -128.78588702 29.32680627 -113.02270508 11.09350586 C-84.77428311 -19.84900142 -33.75367449 -26.76138787 0 0 Z M-76 31 C-86.69794177 42.20736757 -88.47103393 56.35647987 -88.35327148 71.32421875 C-88.04568601 83.51298225 -85.2672253 95.58192931 -76.8125 104.8125 C-67.98575568 113.00046677 -57.97151648 114.56677761 -46.41015625 114.33984375 C-37.76756238 113.89239689 -29.96580368 110.10683743 -23.74609375 104.1328125 C-13.32152856 91.399451 -11.60122089 74.80975744 -13 59 C-14.68407908 46.61816105 -18.96358602 36.55551599 -28.80859375 28.50390625 C-43.28744379 18.56744054 -62.37663825 20.63439867 -76 31 Z " fill="#FEFEFE" transform="translate(1312,189)"/>
<path d="M0 0 C13.2 0 26.4 0 40 0 C43.0500293 7.32007033 45.96463481 14.45299809 48.4609375 21.94140625 C48.76866592 22.85192749 49.07639435 23.76244873 49.39344788 24.70056152 C50.39092107 27.65333309 51.38293507 30.60790753 52.375 33.5625 C53.78759447 37.75093877 55.20369347 41.93818532 56.62109375 46.125 C56.98040482 47.1870314 57.33971588 48.24906281 57.70991516 49.34327698 C60.21252286 56.72344843 62.76355763 64.08549057 65.34765625 71.4375 C65.86767212 72.91826271 65.86767212 72.91826271 66.39819336 74.42893982 C68.05544577 79.14391995 69.71914161 83.85652433 71.39013672 88.56665039 C71.9881072 90.26443234 72.58593421 91.96226482 73.18359375 93.66015625 C73.45575211 94.42058228 73.72791046 95.1810083 74.00831604 95.96447754 C75.41173885 99.9658788 76.44746918 103.77253547 77 108 C77.66 108 78.32 108 79 108 C79.39022339 106.09130127 79.39022339 106.09130127 79.78833008 104.14404297 C80.96566198 98.86127048 82.62450142 93.80791344 84.38671875 88.6953125 C84.72088806 87.71382233 85.05505737 86.73233215 85.39935303 85.72109985 C86.49058528 82.52073135 87.58885923 79.32283205 88.6875 76.125 C89.44761333 73.90145821 90.20745717 71.67782428 90.96704102 69.45410156 C97.53262025 50.25941775 104.19586276 31.0983722 110.92059326 11.95889282 C111.16650208 11.2579953 111.41241089 10.55709778 111.66577148 9.83496094 C111.87652817 9.23520447 112.08728485 8.635448 112.3044281 8.01751709 C113.22341582 5.35197895 114.10839291 2.67482127 115 0 C128.53 0 142.06 0 156 0 C153.75008535 10.12461591 153.75008535 10.12461591 152.02661133 14.80517578 C151.63966599 15.8648053 151.25272064 16.92443481 150.85404968 18.01617432 C150.4342836 19.14778992 150.01451752 20.27940552 149.58203125 21.4453125 C148.89828243 23.31051626 148.21453363 25.17572004 147.53078556 27.04092407 C146.80022906 29.03035096 146.06684271 31.01871291 145.33258057 33.0067749 C143.79141637 37.17968993 142.25813013 41.3554721 140.72607422 45.53173828 C138.85126118 50.64081258 136.97463968 55.74921518 135.09565353 60.85675621 C130.32422066 73.82744479 125.58251631 86.8089502 120.84504414 99.7920742 C119.39670644 103.76123656 117.94735913 107.73002764 116.49688053 111.69840813 C110.61815901 127.7824724 104.78879514 143.8833341 99 160 C85.14 160 71.28 160 57 160 C55.87207031 156.90753906 54.74414062 153.81507813 53.58203125 150.62890625 C51.99265602 146.27326642 50.40265529 141.9178551 48.8125 137.5625 C48.39083557 136.40755035 47.96917114 135.25260071 47.534729 134.06265259 C41.28504369 116.94886788 35.00089757 99.84816248 28.6918335 82.75616455 C24.78687893 72.17360194 20.89115232 61.5876446 17 51 C16.57366272 49.84016602 16.14732544 48.68033203 15.70806885 47.48535156 C13.23770779 40.76126693 10.77517488 34.03440261 8.3237915 27.30337524 C7.57240601 25.24296782 6.81882054 23.18336121 6.06292725 21.12460327 C5.02931031 18.30791439 4.00379955 15.48840795 2.98046875 12.66796875 C2.52278862 11.42853516 2.52278862 11.42853516 2.05586243 10.1640625 C1.78243515 9.40504639 1.50900787 8.64603027 1.22729492 7.86401367 C0.98863205 7.20986984 0.74996918 6.55572601 0.5040741 5.88175964 C0 4 0 4 0 0 Z " fill="#FEFEFE" transform="translate(828,177)"/>
<path d="M0 0 C1 1 1 1 1.11352539 4.60180664 C1.11336625 6.20459856 1.10767063 7.8073956 1.09765625 9.41015625 C1.0962413 10.25219101 1.09482635 11.09422577 1.09336853 11.96177673 C1.08775263 14.66205335 1.07519748 17.36224828 1.0625 20.0625 C1.05748705 21.88867068 1.05292379 23.71484266 1.04882812 25.54101562 C1.03777804 30.02737542 1.02050279 34.51367384 1 39 C0.14857422 38.79286377 -0.70285156 38.58572754 -1.58007812 38.37231445 C-17.99008256 34.46599973 -33.98245632 32.85651308 -49.3359375 41.2421875 C-57.87946866 46.87941481 -61.84436525 55.19862723 -64 65 C-64.0954595 66.36020322 -64.14559347 67.7240951 -64.15821838 69.08758545 C-64.17290161 70.29485039 -64.17290161 70.29485039 -64.18788147 71.52650452 C-64.19363693 72.40044357 -64.1993924 73.27438263 -64.20532227 74.17480469 C-64.21522186 75.101978 -64.22512146 76.02915131 -64.23532104 76.98442078 C-64.2668905 80.0468796 -64.29167554 83.10935394 -64.31640625 86.171875 C-64.3369797 88.29608563 -64.35797628 90.4202922 -64.37937927 92.54449463 C-64.43455949 98.13397941 -64.48398667 103.7235009 -64.53222656 109.31304932 C-64.59130589 116.02034009 -64.65751161 122.72756383 -64.72252655 129.43479919 C-64.82048511 139.6231585 -64.90937611 149.81156091 -65 160 C-78.86 160 -92.72 160 -107 160 C-107 107.2 -107 54.4 -107 0 C-95.12 0 -83.24 0 -71 0 C-68.88074396 2.11925604 -69.58168983 6.6196093 -69.4375 9.5625 C-69.39431641 10.36880859 -69.35113281 11.17511719 -69.30664062 12.00585938 C-69.20024738 14.00368805 -69.09959112 16.0018207 -69 18 C-68.47792969 17.35933594 -67.95585938 16.71867187 -67.41796875 16.05859375 C-57.61352346 4.53708273 -47.16728055 -0.60701131 -32.5 -3.75 C-20.91977733 -4.57715876 -11.04516352 -3.42070363 0 0 Z " fill="#FEFEFE" transform="translate(814,177)"/>
<path d="M0 0 C1.28751357 3.78834888 2.56909069 7.57864846 3.84521484 11.37084961 C4.28011228 12.66046159 4.71662422 13.94953029 5.15478516 15.23803711 C5.78452574 17.0908453 6.40797257 18.94578889 7.03125 20.80078125 C7.40830078 21.91622314 7.78535156 23.03166504 8.17382812 24.1809082 C9 27 9 27 9 30 C-11.65546601 37.23046865 -32.31355403 44.45478306 -53.00628662 51.57803345 C-54.6662245 52.15013652 -56.3256109 52.72384227 -57.98443604 53.29916382 C-60.290207 54.09841201 -62.59791344 54.89179128 -64.90625 55.68359375 C-65.58553558 55.92035828 -66.26482117 56.1571228 -66.96469116 56.40106201 C-69.78618578 57.36248449 -71.99409154 58 -75 58 C-76.42819399 54.05043587 -77.85224928 50.09941203 -79.27246094 46.14697266 C-79.75634643 44.80216068 -80.24136744 43.45775672 -80.72753906 42.11376953 C-81.42550666 40.18367547 -82.11939898 38.25215863 -82.8125 36.3203125 C-83.23144531 35.15773926 -83.65039062 33.99516602 -84.08203125 32.79736328 C-85 30 -85 30 -85 28 C-83.85393028 27.60655899 -83.85393028 27.60655899 -82.68470764 27.20516968 C-75.40526073 24.70601974 -68.12605865 22.20615842 -60.84711552 19.70554161 C-57.10694701 18.42066639 -53.36669168 17.13604524 -49.6262207 15.85205078 C-46.01123573 14.61112283 -42.39650886 13.36944554 -38.78193283 12.12732697 C-37.36880193 11.64187707 -35.95557625 11.15670296 -34.5422554 10.67180634 C-24.89382312 7.36156424 -24.89382312 7.36156424 -15.28076172 3.95019531 C-14.48133652 3.66222076 -13.68191132 3.37424622 -12.85826111 3.07754517 C-10.88552258 2.36227709 -8.91607442 1.63795018 -6.94702148 0.91259766 C-4 0 -4 0 0 0 Z " fill="#FEFEFE" transform="translate(1119,101)"/>
<path d="M0 0 C2.475 0.495 2.475 0.495 5 1 C5.33 0.67 5.66 0.34 6 0 C9.66344611 -0.13568319 12.50615721 -0.16461426 16 1 C16.66 0.67 17.32 0.34 18 0 C21.4375 -0.375 21.4375 -0.375 25 0 C28.48708832 4.08419248 28.3658478 8.19529015 28.1875 13.3125 C28.16719727 14.42334961 28.16719727 14.42334961 28.14648438 15.55664062 C28.11135979 17.37141075 28.05755972 19.18580288 28 21 C26.35 21 24.7 21 23 21 C22.67 15.72 22.34 10.44 22 5 C20.35 5.33 18.7 5.66 17 6 C16.67 10.95 16.34 15.9 16 21 C14.68 21 13.36 21 12 21 C11.67 15.39 11.34 9.78 11 4 C9.35 4.33 7.7 4.66 6 5 C4.89485234 8.31544299 4.67892369 11.20410111 4.4375 14.6875 C4.35371094 15.86699219 4.26992188 17.04648437 4.18359375 18.26171875 C4.12300781 19.16535156 4.06242188 20.06898438 4 21 C2.68 21 1.36 21 0 21 C0 14.07 0 7.14 0 0 Z " fill="#FDFDFD" transform="translate(866,379)"/>
<path d="M0 0 C3.73698169 1.62477465 5.84763317 3.55621307 8 7 C9.69255192 12.07765576 9.61250636 16.37685815 7.75 21.3125 C5.49669153 24.77293801 4.03744509 26.49841524 -0.046875 27.50390625 C-5.23314372 28.3305766 -8.55095744 28.10398318 -13 25 C-16.80802992 21.50072926 -17.76042805 18.28550612 -18.09375 13.27734375 C-17.88293139 8.15620835 -16.06454205 4.98850333 -12.375 1.5625 C-8.06865984 -0.431176 -4.66833749 -0.71621444 0 0 Z M-10.9375 5.9375 C-13.70751318 10.05054988 -13.92626334 13.17643997 -13 18 C-11.63057551 21.10847573 -11.63057551 21.10847573 -9 23 C-5.50540538 23.93605213 -3.15394952 24.3742539 0.3125 23.25 C2.75713338 21.43916046 3.88807094 19.69513836 4.37109375 16.6953125 C4.48764951 12.18391914 4.47955299 9.72659544 1.9375 5.875 C-2.86450937 2.80988764 -6.17631314 2.79714271 -10.9375 5.9375 Z " fill="#FDFDFD" transform="translate(1032,372)"/>
<path d="M0 0 C0.66 0 1.32 0 2 0 C3.32 0 4.64 0 6 0 C6.08741124 3.56234428 6.14052896 7.12441108 6.1875 10.6875 C6.21263672 11.69490234 6.23777344 12.70230469 6.26367188 13.74023438 C6.3557863 23.04379115 6.3557863 23.04379115 3 27 C0.37115252 29.14202387 -1.79893143 29.11408927 -5.0625 28.875 C-7.99717972 28.42140891 -8.79971532 28.19402578 -11 26.0625 C-12 24 -12 24 -12 22 C-10.35 22 -8.7 22 -7 22 C-7 22.66 -7 23.32 -7 24 C-5.02 24 -3.04 24 -1 24 C-0.34 22.68 0.32 21.36 1 20 C-0.3303125 20.3403125 -0.3303125 20.3403125 -1.6875 20.6875 C-5.63503382 21.05990885 -6.9170941 20.3978157 -10 18 C-12.69074259 13.96388611 -12.55705691 10.73914091 -12 6 C-9.12874115 -0.26456477 -6.57890434 -0.11748043 0 0 Z M-6 4 C-8.32579101 7.48868651 -8.41865457 8.89718519 -8 13 C-6.62073227 15.34261608 -6.62073227 15.34261608 -5 17 C-2.56282742 16.72965366 -2.56282742 16.72965366 0 16 C2.37222995 13.10420618 2.37222995 13.10420618 1.75 9.4375 C1.3141556 5.95407388 1.3141556 5.95407388 -1 4 C-3.5 3.58333333 -3.5 3.58333333 -6 4 Z " fill="#FDFDFD" transform="translate(1172,379)"/>
<path d="M0 0 C2.63136193 2.46690181 2.76481427 4.34721403 3 7.875 C1.68 7.875 0.36 7.875 -1 7.875 C-1.33 6.555 -1.66 5.235 -2 3.875 C-5.3 3.875 -8.6 3.875 -12 3.875 C-12 5.195 -12 6.515 -12 7.875 C-11.09636719 8.11734375 -10.19273438 8.3596875 -9.26171875 8.609375 C-8.08222656 8.94453125 -6.90273437 9.2796875 -5.6875 9.625 C-4.51574219 9.94984375 -3.34398437 10.2746875 -2.13671875 10.609375 C1.17889563 11.94718205 2.37366894 12.73429545 4 15.875 C3.93583987 19.53212768 3.81715074 21.89441911 1.4375 24.75 C-3.64952989 27.09785995 -7.53214087 27.28407549 -12.8125 25.8125 C-16.51124242 23.5642448 -17.54454849 21.89889535 -19 17.875 C-19 17.215 -19 16.555 -19 15.875 C-17.35 15.875 -15.7 15.875 -14 15.875 C-13.34 17.525 -12.68 19.175 -12 20.875 C-6.77967942 22.11975839 -6.77967942 22.11975839 -2 20.625 C-0.75193053 18.77680584 -0.75193053 18.77680584 -1 15.875 C-2.33804687 15.63716797 -2.33804687 15.63716797 -3.703125 15.39453125 C-4.87359375 15.16121094 -6.0440625 14.92789062 -7.25 14.6875 C-8.41015625 14.46707031 -9.5703125 14.24664062 -10.765625 14.01953125 C-14.59064998 12.6659898 -15.89994616 11.30249529 -18 7.875 C-18.0625 4.75 -18.0625 4.75 -17 1.875 C-12.30389294 -2.52760037 -5.71374833 -2.14265562 0 0 Z " fill="#FCFCFC" transform="translate(1211,373.125)"/>
<path d="M0 0 C12.625 -0.125 12.625 -0.125 16 1 C16.66 0.67 17.32 0.34 18 0 C22.05142119 -0.25860135 23.54337669 -0.30441554 27 2 C27.34057617 3.97119141 27.34057617 3.97119141 27.29296875 6.3515625 C27.28330078 7.20234375 27.27363281 8.053125 27.26367188 8.9296875 C27.23853516 9.81914062 27.21339844 10.70859375 27.1875 11.625 C27.16719727 12.97078125 27.16719727 12.97078125 27.14648438 14.34375 C27.11106925 16.56309789 27.06168461 18.78125188 27 21 C25.68 21 24.36 21 23 21 C22.67 15.72 22.34 10.44 22 5 C20.35 5.33 18.7 5.66 17 6 C16.67 10.95 16.34 15.9 16 21 C14.68 21 13.36 21 12 21 C11.67 15.39 11.34 9.78 11 4 C9.35 4.33 7.7 4.66 6 5 C4.5192152 7.9615696 4.64685963 10.83506295 4.4375 14.125 C4.35371094 15.40632813 4.26992187 16.68765625 4.18359375 18.0078125 C4.09271484 19.48894531 4.09271484 19.48894531 4 21 C2.68 21 1.36 21 0 21 C0 14.07 0 7.14 0 0 Z " fill="#FDFDFD" transform="translate(1289,379)"/>
<path d="M0 0 C12.625 -0.125 12.625 -0.125 16 1 C16.66 0.67 17.32 0.34 18 0 C22.05142119 -0.25860135 23.54337669 -0.30441554 27 2 C27.34057617 3.97119141 27.34057617 3.97119141 27.29296875 6.3515625 C27.28330078 7.20234375 27.27363281 8.053125 27.26367188 8.9296875 C27.23853516 9.81914062 27.21339844 10.70859375 27.1875 11.625 C27.16719727 12.97078125 27.16719727 12.97078125 27.14648438 14.34375 C27.11106925 16.56309789 27.06168461 18.78125188 27 21 C25.68 21 24.36 21 23 21 C22.67 15.72 22.34 10.44 22 5 C20.35 5.33 18.7 5.66 17 6 C16.67 10.95 16.34 15.9 16 21 C14.68 21 13.36 21 12 21 C11.67 15.39 11.34 9.78 11 4 C9.35 4.33 7.7 4.66 6 5 C4.5192152 7.9615696 4.64685963 10.83506295 4.4375 14.125 C4.35371094 15.40632813 4.26992188 16.68765625 4.18359375 18.0078125 C4.09271484 19.48894531 4.09271484 19.48894531 4 21 C2.68 21 1.36 21 0 21 C0 14.07 0 7.14 0 0 Z " fill="#FDFDFD" transform="translate(898,379)"/>
<path d="M0 0 C2.475 0.495 2.475 0.495 5 1 C5.33 0.67 5.66 0.34 6 0 C10.19542372 -0.48408735 12.33827372 -0.42237848 15.9375 1.875 C18.83068915 6.25861993 18.8982223 9.88768803 18 15 C16.375 18.0625 16.375 18.0625 14 20 C10.35814676 21.0405295 8.60702852 21.20234284 5 20 C5 22.97 5 25.94 5 29 C3.35 29 1.7 29 0 29 C0 19.43 0 9.86 0 0 Z M5.125 5.5625 C3.51520213 9.05039538 4.05103567 11.33970903 5 15 C7.69155201 17.264384 7.69155201 17.264384 10.0625 16.75 C12.19476975 16.07467282 12.19476975 16.07467282 14 14 C14.31537716 9.66356399 14.44897847 7.67346771 12 4 C8.87719621 3.43949676 7.58643298 3.51130585 5.125 5.5625 Z " fill="#FDFDFD" transform="translate(1044,379)"/>
<path d="M0 0 C2.38337126 2.09447778 3.16618306 3.79761576 4.0625 6.8125 C2.3125 7.5625 2.3125 7.5625 0.0625 7.8125 C-0.535625 7.173125 -1.13375 6.53375 -1.75 5.875 C-3.87540414 3.46319761 -3.87540414 3.46319761 -7.5 3.375 C-10.79134097 3.57311522 -10.79134097 3.57311522 -12.8125 4.875 C-14.84415315 8.37395821 -15.31004201 11.80711428 -14.5703125 15.7890625 C-13.92174098 17.9932194 -13.92174098 17.9932194 -11.9375 20.8125 C-8.53780189 22.1434316 -8.53780189 22.1434316 -4.9375 21.8125 C-1.72120053 20.1197108 -1.10023289 19.30069868 0.0625 15.8125 C1.7125 16.1425 3.3625 16.4725 5.0625 16.8125 C3.00738189 23.21963293 3.00738189 23.21963293 -1.125 25.8125 C-5.8340017 27.04764799 -8.20949652 26.95637181 -12.9375 25.8125 C-16.47301247 23.58358997 -18.38079483 21.65646935 -19.9375 17.8125 C-20.62878923 12.49118061 -20.56915723 8.09837364 -18.1875 3.25 C-13.21233004 -2.13976746 -6.67595945 -2.69879212 0 0 Z " fill="#FCFCFC" transform="translate(836.9375,373.1875)"/>
<path d="M0 0 C3 2 3 2 3.68359375 4.16796875 C4.06380544 7.57109804 4.09450001 10.88849872 4.0625 14.3125 C4.05347656 15.56675781 4.04445313 16.82101562 4.03515625 18.11328125 C4.02355469 19.06589844 4.01195312 20.01851563 4 21 C3.2575 20.82210938 2.515 20.64421875 1.75 20.4609375 C-0.86345408 20.02288696 -2.44741819 20.1000739 -5 20.625 C-7.9457722 21.03785444 -9.06315894 20.97894702 -12 20 C-14 18 -14 18 -14.625 14.5 C-14 11 -14 11 -12 9.125 C-8.2645437 7.72420389 -4.97369047 7.33675343 -1 7 C-1.33 6.34 -1.66 5.68 -2 5 C-4.91652174 4.83318891 -4.91652174 4.83318891 -8 5 C-8.66 5.66 -9.32 6.32 -10 7 C-11.32 7 -12.64 7 -14 7 C-13.65557106 4.50289018 -13.15296001 3.17845335 -11.5 1.25 C-7.79146764 -0.60426618 -4.07675486 -0.57810336 0 0 Z M-10 13 C-10 13.99 -10 14.98 -10 16 C-7.14221967 16.68493373 -7.14221967 16.68493373 -4 17 C-3.01 16.34 -2.02 15.68 -1 15 C-1 13.68 -1 12.36 -1 11 C-4.38023517 11 -6.83468937 11.87455622 -10 13 Z " fill="#FDFDFD" transform="translate(1113,379)"/>
<path d="M0 0 C2.43119623 1.87015094 3.64069173 3.28138345 5 6 C5 7.98 5 9.96 5 12 C0.38 12 -4.24 12 -9 12 C-8.67 13.32 -8.34 14.64 -8 16 C-3.2102679 16.23428313 -3.2102679 16.23428313 1 14 C2.32 14 3.64 14 5 14 C4.1059808 17.08842997 3.58228792 18.63399045 0.8125 20.375 C-2.83594918 21.18576648 -5.38117216 20.92115618 -9 20 C-11.3181362 18.10888889 -12.66914015 16.66171969 -14 14 C-14.37712577 9.00308353 -14.09290612 6.00932275 -11 2 C-7.33218328 -0.44521115 -4.26546767 -0.72237759 0 0 Z M-7 4 C-7.66 5.32 -8.32 6.64 -9 8 C-5.7 8 -2.4 8 1 8 C0.34 6.68 -0.32 5.36 -1 4 C-2.98 4 -4.96 4 -7 4 Z " fill="#FDFDFD" transform="translate(1280,379)"/>
<path d="M0 0 C2.9375 1.5 2.9375 1.5 5 4 C5.69926312 6.73443189 5.8576733 9.15346598 6 12 C1.05 12 -3.9 12 -9 12 C-7.68 13.32 -6.36 14.64 -5 16 C-1.6678502 15.80801478 -1.6678502 15.80801478 1 14 C2.66617115 13.95936168 4.33388095 13.957279 6 14 C4.67517784 16.51716211 3.53365431 18.56517056 1.3125 20.375 C-2.2910408 21.34892995 -5.4396899 21.09435761 -9 20 C-11.86278974 17.78133795 -12.79600247 16.18318567 -13.41015625 12.62109375 C-13.66925228 8.16331342 -13.44249005 5.6913907 -11 1.875 C-7.14545693 -0.53408942 -4.42654634 -0.93896438 0 0 Z M-7 4 C-7.66 5.32 -8.32 6.64 -9 8 C-5.7 8 -2.4 8 1 8 C0.34 6.68 -0.32 5.36 -1 4 C-2.98 4 -4.96 4 -7 4 Z " fill="#FCFCFC" transform="translate(995,379)"/>
<path d="M0 0 C2.9375 1.5 2.9375 1.5 5 4 C5.69926312 6.73443189 5.8576733 9.15346598 6 12 C1.05 12 -3.9 12 -9 12 C-7.68 13.32 -6.36 14.64 -5 16 C-1.6678502 15.80801478 -1.6678502 15.80801478 1 14 C2.66617115 13.95936168 4.33388095 13.957279 6 14 C4.67517784 16.51716211 3.53365431 18.56517056 1.3125 20.375 C-2.2910408 21.34892995 -5.4396899 21.09435761 -9 20 C-11.86278974 17.78133795 -12.79600247 16.18318567 -13.41015625 12.62109375 C-13.66925228 8.16331342 -13.44249005 5.6913907 -11 1.875 C-7.14545693 -0.53408942 -4.42654634 -0.93896438 0 0 Z M-7 4 C-7.66 5.32 -8.32 6.64 -9 8 C-5.7 8 -2.4 8 1 8 C0.34 6.68 -0.32 5.36 -1 4 C-2.98 4 -4.96 4 -7 4 Z " fill="#FCFCFC" transform="translate(942,379)"/>
<path d="M0 0 C3.5060303 0.86943897 4.94966563 2.56083702 6.9375 5.48046875 C6.9375 7.79046875 6.9375 10.10046875 6.9375 12.48046875 C2.3175 12.48046875 -2.3025 12.48046875 -7.0625 12.48046875 C-6.0725 13.80046875 -5.0825 15.12046875 -4.0625 16.48046875 C-0.37983897 15.88096579 3.28293185 15.23287984 6.9375 14.48046875 C6.36405063 17.34771561 6.0760485 18.34192025 3.9375 20.48046875 C-3.0098124 21.96104352 -3.0098124 21.96104352 -6.9375 20.16796875 C-10.99079802 16.94917326 -10.99079802 16.94917326 -11.43359375 14.0546875 C-11.61073577 6.35421951 -11.61073577 6.35421951 -9.0625 2.29296875 C-5.75525084 0.29483905 -3.80605439 -0.26671214 0 0 Z M-5.0625 4.48046875 C-5.7225 5.80046875 -6.3825 7.12046875 -7.0625 8.48046875 C-3.7625 8.48046875 -0.4625 8.48046875 2.9375 8.48046875 C2.2775 7.16046875 1.6175 5.84046875 0.9375 4.48046875 C-1.0425 4.48046875 -3.0225 4.48046875 -5.0625 4.48046875 Z " fill="#FDFDFD" transform="translate(1076.0625,378.51953125)"/>
<path d="M0 0 C2.5 1.875 2.5 1.875 4 4 C4 4.66 4 5.32 4 6 C0.37 5.67 -3.26 5.34 -7 5 C-4.0245356 7.13029248 -4.0245356 7.13029248 -0.4375 8.4375 C3 10 3 10 5 13 C5 15.5 5 15.5 4 18 C0.53138003 20.4775857 -1.41426146 21.02978332 -5.6875 20.8125 C-9 20 -9 20 -12 18 C-12.6875 15.875 -12.6875 15.875 -13 14 C-11.35 14 -9.7 14 -8 14 C-8 14.66 -8 15.32 -8 16 C-5.69 16 -3.38 16 -1 16 C-0.67 15.01 -0.34 14.02 0 13 C-0.69867187 12.87882812 -1.39734375 12.75765625 -2.1171875 12.6328125 C-3.02726562 12.46523438 -3.93734375 12.29765625 -4.875 12.125 C-5.77992187 11.96257812 -6.68484375 11.80015625 -7.6171875 11.6328125 C-10 11 -10 11 -12 9 C-12.375 6.0625 -12.375 6.0625 -12 3 C-8.96728354 -0.79089557 -4.50588961 -0.85870437 0 0 Z " fill="#FDFDFD" transform="translate(1249,379)"/>
<path d="M0 0 C2.9375 1.4375 2.9375 1.4375 5 4 C6.36965692 8.48328693 6.33110851 11.98827955 4.875 16.4375 C2.67818124 19.43981897 1.63048787 20.25740021 -2 21 C-5.70504878 20.86999829 -8.20385767 20.44910593 -11.4375 18.625 C-14.01675562 14.29185055 -13.81802575 9.89367619 -13 5 C-9.6965081 -0.26494022 -5.83973193 -1.22693358 0 0 Z M-7 4 C-9.46324069 7.69486103 -9.38991688 9.63293092 -9 14 C-8.03882095 16.12870693 -8.03882095 16.12870693 -6 17 C-2.91004903 17.08223366 -2.91004903 17.08223366 0 16 C1.60739458 14.36954287 1.60739458 14.36954287 2 12 C1.6639329 7.48569844 1.6639329 7.48569844 -1 4 C-4 3.58333333 -4 3.58333333 -7 4 Z " fill="#FDFDFD" transform="translate(857,379)"/>
<path d="M0 0 C1.65 0 3.3 0 5 0 C6.32 3.96 7.64 7.92 9 12 C10.65 8.04 12.3 4.08 14 0 C15.32 0 16.64 0 18 0 C17.32655411 5.51327699 15.58922378 10.44210501 13.6875 15.625 C13.39166016 16.470625 13.09582031 17.31625 12.79101562 18.1875 C11.18827298 22.57686863 9.88702466 26.12455758 6 29 C3.8125 28.9375 3.8125 28.9375 2 28 C1.67 27.01 1.34 26.02 1 25 C2.32 24.67 3.64 24.34 5 24 C6.78733161 18.88312492 4.92145372 15.10835654 3.0625 10.3125 C0 2.18431264 0 2.18431264 0 0 Z " fill="#FCFCFC" transform="translate(1217,379)"/>
<path d="M0 0 C2.475 0.495 2.475 0.495 5 1 C5.33 0.67 5.66 0.34 6 0 C12.13021564 -0.57832223 12.13021564 -0.57832223 15.21484375 1.47265625 C17.82633688 5.16989051 17.43999997 8.34346233 17.25 12.75 C17.23195313 13.54277344 17.21390625 14.33554687 17.1953125 15.15234375 C17.14833082 17.10208348 17.07659044 19.05119878 17 21 C15.68 21 14.36 21 13 21 C12.93941406 19.92878906 12.87882812 18.85757812 12.81640625 17.75390625 C12.73201463 16.35675609 12.64736594 14.95962143 12.5625 13.5625 C12.52318359 12.85544922 12.48386719 12.14839844 12.44335938 11.41992188 C12.52375562 7.91309581 12.52375562 7.91309581 11 5 C9.33382885 4.95936168 7.66611905 4.957279 6 5 C4.89485234 8.31544299 4.67892369 11.20410111 4.4375 14.6875 C4.35371094 15.86699219 4.26992187 17.04648437 4.18359375 18.26171875 C4.12300781 19.16535156 4.06242187 20.06898438 4 21 C2.68 21 1.36 21 0 21 C0 14.07 0 7.14 0 0 Z " fill="#FDFDFD" transform="translate(1140,379)"/>
<path d="M0 0 C2.5 1.75 2.5 1.75 4 4 C4 5.32 4 6.64 4 8 C2.68 8 1.36 8 0 8 C-0.33 6.68 -0.66 5.36 -1 4 C-3.31 4.33 -5.62 4.66 -8 5 C-8.04125 6.258125 -8.0825 7.51625 -8.125 8.8125 C-8.14820313 9.52019531 -8.17140625 10.22789062 -8.1953125 10.95703125 C-8.13254462 13.31359719 -8.13254462 13.31359719 -6 16 C-2.91634129 16.2502157 -2.91634129 16.2502157 0 16 C0.33 15.01 0.66 14.02 1 13 C2.32 13 3.64 13 5 13 C4.07739356 16.10331257 3.29502729 17.74711947 0.8125 19.875 C-2.96561354 21.38624541 -5.11059061 21.13146455 -9 20 C-11.65358465 17.82269978 -12.79918803 16.25963872 -13.34375 12.84375 C-13.53314858 8.10878542 -13.08307106 4.794549 -10 1 C-6.80197706 -0.59901147 -3.47079828 -0.50072781 0 0 Z " fill="#FCFCFC" transform="translate(976,379)"/>
<path d="M0 0 C0 2.31 0 4.62 0 7 C0.99 7 1.98 7 3 7 C3 8.32 3 9.64 3 11 C2.01 11 1.02 11 0 11 C0 15.29 0 19.58 0 24 C0.99 24 1.98 24 3 24 C2.67 25.32 2.34 26.64 2 28 C0.02 27.67 -1.96 27.34 -4 27 C-5.14077657 23.57767028 -5.09815117 20.91326783 -5.0625 17.3125 C-5.05347656 16.13300781 -5.04445313 14.95351563 -5.03515625 13.73828125 C-5.02355469 12.83464844 -5.01195312 11.93101562 -5 11 C-5.66 11 -6.32 11 -7 11 C-7 9.68 -7 8.36 -7 7 C-6.34 7 -5.68 7 -5 7 C-5.061875 6.21625 -5.12375 5.4325 -5.1875 4.625 C-5.125625 3.75875 -5.06375 2.8925 -5 2 C-2 0 -2 0 0 0 Z " fill="#FDFDFD" transform="translate(1262,372)"/>
<path d="M0 0 C0 2.31 0 4.62 0 7 C0.99 7 1.98 7 3 7 C3 8.32 3 9.64 3 11 C2.01 11 1.02 11 0 11 C0 15.29 0 19.58 0 24 C0.99 24 1.98 24 3 24 C2.67 25.32 2.34 26.64 2 28 C0.02 27.67 -1.96 27.34 -4 27 C-5.14077657 23.57767028 -5.09815117 20.91326783 -5.0625 17.3125 C-5.05347656 16.13300781 -5.04445313 14.95351563 -5.03515625 13.73828125 C-5.02355469 12.83464844 -5.01195312 11.93101562 -5 11 C-5.66 11 -6.32 11 -7 11 C-7 9.68 -7 8.36 -7 7 C-6.34 7 -5.68 7 -5 7 C-5.061875 6.21625 -5.12375 5.4325 -5.1875 4.625 C-5.125625 3.75875 -5.06375 2.8925 -5 2 C-2 0 -2 0 0 0 Z " fill="#FDFDFD" transform="translate(1126,372)"/>
<path d="M0 0 C3.96 0 7.92 0 12 0 C11.67 1.32 11.34 2.64 11 4 C9.35 4.33 7.7 4.66 6 5 C4.89485234 8.31544299 4.67892369 11.20410111 4.4375 14.6875 C4.35371094 15.86699219 4.26992188 17.04648437 4.18359375 18.26171875 C4.12300781 19.16535156 4.06242188 20.06898438 4 21 C2.68 21 1.36 21 0 21 C0 14.07 0 7.14 0 0 Z " fill="#FDFDFD" transform="translate(951,379)"/>
<path d="M0 0 C3.63 0 7.26 0 11 0 C10.67 1.32 10.34 2.64 10 4 C9.360625 4.12375 8.72125 4.2475 8.0625 4.375 C7.0415625 4.684375 7.0415625 4.684375 6 5 C4.5192152 7.9615696 4.64685963 10.83506295 4.4375 14.125 C4.35371094 15.40632813 4.26992187 16.68765625 4.18359375 18.0078125 C4.09271484 19.48894531 4.09271484 19.48894531 4 21 C2.68 21 1.36 21 0 21 C0 14.07 0 7.14 0 0 Z " fill="#FDFDFD" transform="translate(1087,379)"/>
<path d="M0 0 C1.32 0 2.64 0 4 0 C4 6.93 4 13.86 4 21 C2.68 21 1.36 21 0 21 C0 14.07 0 7.14 0 0 Z " fill="#FEFEFE" transform="translate(1132,379)"/>
<path d="M0 0 C1.32 0 2.64 0 4 0 C4 1.32 4 2.64 4 4 C2.68 4 1.36 4 0 4 C0 2.68 0 1.36 0 0 Z " fill="#FDFDFD" transform="translate(1132,372)"/>
</svg>
